<svg width="605" height="493" viewBox="0 0 605 493" fill="none" xmlns="http://www.w3.org/2000/svg">
<path d="M0.644836 459.784H604.837" stroke="black"/>
<path d="M0.644745 40.7225L0.644731 460.722" stroke="black"/>
<path d="M0.644836 58.7511L67.7773 108.514L134.91 139.616L202.042 241.216L269.175 141.69L336.307 162.425L403.44 54.6041L470.572 193.527L537.705 216.335L604.837 77.4123V40.0898H537.705H470.572H403.44H336.307H269.175H202.042H134.91H67.7773H0.644836V58.7511Z" fill="#2A6D9E"/>
<path d="M0.644836 58.7511L67.7773 108.514L134.91 139.616L202.042 241.216L269.175 141.69L336.307 162.425L403.44 54.6041L470.572 193.527L537.705 216.335L604.837 77.4123V40.0898H537.705H470.572H403.44H336.307H269.175H202.042H134.91H67.7773H0.644836V58.7511Z" fill="url(#paint0_linear)" style="mix-blend-mode:hard-light"/>
<path d="M212.617 23.7384C216.355 23.7384 218.863 21.8751 219.637 18.5353H217.504C216.895 20.5978 215.113 21.7931 212.629 21.7931C209.289 21.7931 207.168 19.1447 207.168 14.9962C207.168 10.8829 209.312 8.21106 212.617 8.21106C215.031 8.21106 216.965 9.66418 217.504 11.879H219.637C219.098 8.50403 216.297 6.26575 212.617 6.26575C207.988 6.26575 205 9.68762 205 14.9962C205 20.3517 207.953 23.7384 212.617 23.7384ZM228.895 17.5509V15.6525H221.207V17.5509H228.895ZM231.016 18.922C231.215 21.84 233.676 23.7384 237.367 23.7384C241.152 23.7384 243.613 21.7814 243.613 18.6525C243.613 16.2618 242.219 14.8556 238.691 14.0822L236.816 13.672C234.508 13.1681 233.605 12.254 233.605 10.9181C233.605 9.19543 235.234 8.16418 237.344 8.16418C239.547 8.16418 241.012 9.3009 241.199 11.1525H243.309C243.215 8.28137 240.777 6.26575 237.402 6.26575C233.898 6.26575 231.438 8.22278 231.438 11.0118C231.438 13.4142 232.902 14.9493 236.289 15.6876L238.164 16.0978C240.508 16.6134 241.445 17.5509 241.445 18.9689C241.445 20.6329 239.781 21.84 237.484 21.84C235.059 21.84 233.371 20.7384 233.125 18.922H231.016ZM255.777 11.2697H253.738V18.4298C253.738 20.504 252.543 21.8634 250.562 21.8634C248.676 21.8634 247.75 20.797 247.75 18.8165V11.2697H245.711V19.1798C245.711 21.9454 247.27 23.6681 249.93 23.6681C251.805 23.6681 253.07 22.8829 253.797 21.4767H253.844V23.4572H255.777V11.2697ZM258.531 23.4572H260.57V11.2697H258.531V23.4572ZM259.551 9.10168C260.266 9.10168 260.828 8.52747 260.828 7.82434C260.828 7.1095 260.266 6.547 259.551 6.547C258.848 6.547 258.273 7.1095 258.273 7.82434C258.273 8.52747 258.848 9.10168 259.551 9.10168ZM263.98 8.32825V11.2697H262.164V12.9454H263.98V20.2931C263.98 22.6368 264.848 23.5509 267.086 23.5509C267.566 23.5509 268.129 23.5157 268.375 23.4572V21.7462C268.234 21.7697 267.766 21.8048 267.531 21.8048C266.488 21.8048 266.02 21.3009 266.02 20.1876V12.9454H268.387V11.2697H266.02V8.32825H263.98ZM275.102 12.8282C277.023 12.8282 278.301 14.2814 278.348 16.3204H271.727C271.855 14.2931 273.191 12.8282 275.102 12.8282ZM278.301 19.965C277.961 21.1134 276.824 21.8986 275.277 21.8986C273.086 21.8986 271.715 20.3634 271.715 18.0314V17.9142H280.457V17.1407C280.457 13.4493 278.43 11.0587 275.137 11.0587C271.773 11.0587 269.617 13.6251 269.617 17.4103C269.617 21.2423 271.738 23.6681 275.23 23.6681C277.891 23.6681 279.953 22.0978 280.305 19.965H278.301ZM287.863 27.0548L293.852 6.547H292.105L286.117 27.0548H287.863ZM311.406 23.4572H313.621L307.387 6.547H305.301L299.066 23.4572H301.281L302.98 18.6173H309.707L311.406 23.4572ZM306.309 9.1134H306.379L309.086 16.8243H303.602L306.309 9.1134ZM317.664 23.4572V6.547H315.555V23.4572H317.664ZM325.047 18.922C325.246 21.84 327.707 23.7384 331.398 23.7384C335.184 23.7384 337.645 21.7814 337.645 18.6525C337.645 16.2618 336.25 14.8556 332.723 14.0822L330.848 13.672C328.539 13.1681 327.637 12.254 327.637 10.9181C327.637 9.19543 329.266 8.16418 331.375 8.16418C333.578 8.16418 335.043 9.3009 335.23 11.1525H337.34C337.246 8.28137 334.809 6.26575 331.434 6.26575C327.93 6.26575 325.469 8.22278 325.469 11.0118C325.469 13.4142 326.934 14.9493 330.32 15.6876L332.195 16.0978C334.539 16.6134 335.477 17.5509 335.477 18.9689C335.477 20.6329 333.812 21.84 331.516 21.84C329.09 21.84 327.402 20.7384 327.156 18.922H325.047ZM340.457 8.32825V11.2697H338.641V12.9454H340.457V20.2931C340.457 22.6368 341.324 23.5509 343.562 23.5509C344.043 23.5509 344.605 23.5157 344.852 23.4572V21.7462C344.711 21.7697 344.242 21.8048 344.008 21.8048C342.965 21.8048 342.496 21.3009 342.496 20.1876V12.9454H344.863V11.2697H342.496V8.32825H340.457ZM347.043 23.4572H349.082V15.8634C349.082 14.1407 350.113 13.004 351.695 13.004C352.188 13.004 352.621 13.0626 352.785 13.1212V11.1407C352.621 11.1173 352.316 11.0587 351.965 11.0587C350.535 11.0587 349.41 11.9142 349.012 13.2618H348.965V11.2697H347.043V23.4572ZM358.234 21.9337C356.77 21.9337 355.797 21.172 355.797 20.0118C355.797 18.8634 356.734 18.1368 358.375 18.0314L361.633 17.8322V18.8282C361.633 20.5861 360.156 21.9337 358.234 21.9337ZM357.777 23.6681C359.418 23.6681 360.965 22.754 361.691 21.3595H361.738V23.4572H363.672V15.0314C363.672 12.6056 361.867 11.0587 359.008 11.0587C356.125 11.0587 354.32 12.6759 354.18 14.7853H356.148C356.406 13.59 357.391 12.8517 358.961 12.8517C360.648 12.8517 361.633 13.7423 361.633 15.2306V16.2501L358.141 16.4493C355.328 16.6134 353.723 17.9259 353.723 20.0118C353.723 22.2032 355.352 23.6681 357.777 23.6681ZM366.918 8.32825V11.2697H365.102V12.9454H366.918V20.2931C366.918 22.6368 367.785 23.5509 370.023 23.5509C370.504 23.5509 371.066 23.5157 371.312 23.4572V21.7462C371.172 21.7697 370.703 21.8048 370.469 21.8048C369.426 21.8048 368.957 21.3009 368.957 20.1876V12.9454H371.324V11.2697H368.957V8.32825H366.918ZM378.039 12.8282C379.961 12.8282 381.238 14.2814 381.285 16.3204H374.664C374.793 14.2931 376.129 12.8282 378.039 12.8282ZM381.238 19.965C380.898 21.1134 379.762 21.8986 378.215 21.8986C376.023 21.8986 374.652 20.3634 374.652 18.0314V17.9142H383.395V17.1407C383.395 13.4493 381.367 11.0587 378.074 11.0587C374.711 11.0587 372.555 13.6251 372.555 17.4103C372.555 21.2423 374.676 23.6681 378.168 23.6681C380.828 23.6681 382.891 22.0978 383.242 19.965H381.238ZM390.414 21.7579C388.316 21.7579 386.945 20.047 386.945 17.3165C386.945 14.5861 388.316 12.8517 390.414 12.8517C392.535 12.8517 393.953 14.6329 393.953 17.3165C393.953 20.0001 392.535 21.7579 390.414 21.7579ZM390.484 28.0509C393.848 28.0509 395.992 26.1173 395.992 23.2111V11.2697H394.047V13.3204H394.012C393.203 11.9025 391.773 11.0587 390.051 11.0587C386.898 11.0587 384.859 13.4962 384.859 17.3165C384.859 21.1017 386.898 23.5509 390.004 23.5509C391.715 23.5509 393.156 22.6837 393.906 21.3595H393.953V23.2814C393.953 25.0978 392.676 26.3165 390.566 26.3165C389.043 26.3165 387.836 25.5782 387.438 24.465H385.34C385.68 26.5392 387.801 28.0509 390.484 28.0509ZM399.672 28.0157C401.875 28.0157 402.883 27.1603 403.926 24.3126L408.719 11.2697H406.574L403.199 21.4181H403.164L399.789 11.2697H397.609L402.109 23.4689L401.828 24.3243C401.359 25.7423 400.727 26.2931 399.59 26.2931C399.332 26.2931 399.016 26.2814 398.793 26.2345V27.9454C399.016 27.9923 399.426 28.0157 399.672 28.0157Z" fill="black"/>
<defs>
<linearGradient id="paint0_linear" x1="302.741" y1="198.192" x2="302.741" y2="40.0898" gradientUnits="userSpaceOnUse">
<stop stop-color="white"/>
<stop offset="0.742268" stop-color="white" stop-opacity="0.244845"/>
<stop offset="1" stop-color="white" stop-opacity="0"/>
</linearGradient>
</defs>
</svg>
