<svg width="512" height="512" viewBox="0 0 512 512" fill="none" xmlns="http://www.w3.org/2000/svg">
<g clip-path="url(#clip0)">
<rect width="512" height="512" rx="10" fill="#1E1D1E"/>
<path d="M89.2969 200.727C89.2969 158.734 112.979 132.367 151.309 132.367C189.395 132.367 213.076 158.49 213.076 200.727V242.475C213.076 284.467 189.395 310.59 151.309 310.59C112.979 310.59 89.2969 284.467 89.2969 242.475V200.727ZM212.832 312.055V356H270.449V-14.6055H211.855V132.367H206.973C196.963 101.361 169.375 84.0273 130.801 84.0273C69.5215 84.0273 31.4355 127.24 31.4355 198.285V245.893C31.4355 317.182 69.5215 360.15 130.801 360.15C169.619 360.15 196.719 343.305 207.949 312.055H212.832Z" fill="#569CD6"/>
<path d="M366.117 162.271C327.543 162.271 300.443 179.361 289.213 210.611H284.33V166.666H226.713V523.6H285.307V390.299H290.189C300.199 421.061 327.543 438.639 366.117 438.639C427.641 438.639 465.727 395.426 465.727 324.137V276.529C465.727 205.484 427.641 162.271 366.117 162.271ZM345.854 212.076C384.184 212.076 407.865 238.199 407.865 280.191V322.184C407.865 363.932 384.184 390.299 345.854 390.299C307.768 390.299 284.086 364.176 284.086 322.184V280.191C284.086 238.199 307.768 212.076 345.854 212.076Z" fill="#C586C0"/>
</g>
<defs>
<clipPath id="clip0">
<rect width="512" height="512" fill="white"/>
</clipPath>
</defs>
</svg>
