<svg width="32" height="32" viewBox="0 0 32 32" fill="none" xmlns="http://www.w3.org/2000/svg">
<circle cx="16" cy="16" r="16" fill="#1D1E1D"/>
<mask id="mask0" mask-type="alpha" maskUnits="userSpaceOnUse" x="0" y="0" width="32" height="32">
<circle cx="16" cy="16" r="16" fill="#1D1E1D"/>
</mask>
<g mask="url(#mask0)">
<path d="M5.64062 11.3047C5.64062 8.95312 6.9668 7.47656 9.11328 7.47656C11.2461 7.47656 12.5723 8.93945 12.5723 11.3047V13.6426C12.5723 15.9941 11.2461 17.457 9.11328 17.457C6.9668 17.457 5.64062 15.9941 5.64062 13.6426V11.3047ZM12.5586 17.5391V20H15.7852V-0.753906H12.5039V7.47656H12.2305C11.6699 5.74023 10.125 4.76953 7.96484 4.76953C4.5332 4.76953 2.40039 7.18945 2.40039 11.168V13.834C2.40039 17.8262 4.5332 20.2324 7.96484 20.2324C10.1387 20.2324 11.6562 19.2891 12.2852 17.5391H12.5586Z" fill="#569CD6"/>
<path d="M22.7266 12.7832C20.5664 12.7832 19.0488 13.7402 18.4199 15.4902H18.1465V13.0293H14.9199V33.0176H18.2012V25.5527H18.4746C19.0352 27.2754 20.5664 28.2598 22.7266 28.2598C26.1719 28.2598 28.3047 25.8398 28.3047 21.8477V19.1816C28.3047 15.2031 26.1719 12.7832 22.7266 12.7832ZM21.5918 15.5723C23.7383 15.5723 25.0645 17.0352 25.0645 19.3867V21.7383C25.0645 24.0762 23.7383 25.5527 21.5918 25.5527C19.459 25.5527 18.1328 24.0898 18.1328 21.7383V19.3867C18.1328 17.0352 19.459 15.5723 21.5918 15.5723Z" fill="#C586C0"/>
</g>
</svg>
