<svg width="605" height="493" viewBox="0 0 605 493" fill="none" xmlns="http://www.w3.org/2000/svg">
<path d="M0.644836 459.784H604.837" stroke="black"/>
<path d="M0.644745 40.7225L0.644731 460.722" stroke="black"/>
<path d="M0.644836 327.082L67.7773 289.759L134.91 410.02L202.042 277.318L269.175 252.437L336.307 345.743L403.44 287.686L470.572 362.331L537.705 414.167L604.837 262.804V459.784H537.705H470.572H403.44H336.307H269.175H202.042H134.91H67.7773H0.644836V327.082Z" fill="url(#paint0_linear)" fill-opacity="0.75"/>
<path d="M232.453 472.09V489H238.137C243.164 489 246.117 485.871 246.117 480.539C246.117 475.219 243.152 472.09 238.137 472.09H232.453ZM234.562 473.988H237.996C241.84 473.988 243.961 476.332 243.961 480.562C243.961 484.758 241.828 487.102 237.996 487.102H234.562V473.988ZM252.445 487.477C250.98 487.477 250.008 486.715 250.008 485.555C250.008 484.406 250.945 483.68 252.586 483.574L255.844 483.375V484.371C255.844 486.129 254.367 487.477 252.445 487.477ZM251.988 489.211C253.629 489.211 255.176 488.297 255.902 486.902H255.949V489H257.883V480.574C257.883 478.148 256.078 476.602 253.219 476.602C250.336 476.602 248.531 478.219 248.391 480.328H250.359C250.617 479.133 251.602 478.395 253.172 478.395C254.859 478.395 255.844 479.285 255.844 480.773V481.793L252.352 481.992C249.539 482.156 247.934 483.469 247.934 485.555C247.934 487.746 249.562 489.211 251.988 489.211ZM261.129 473.871V476.812H259.312V478.488H261.129V485.836C261.129 488.18 261.996 489.094 264.234 489.094C264.715 489.094 265.277 489.059 265.523 489V487.289C265.383 487.312 264.914 487.348 264.68 487.348C263.637 487.348 263.168 486.844 263.168 485.73V478.488H265.535V476.812H263.168V473.871H261.129ZM271.5 487.477C270.035 487.477 269.062 486.715 269.062 485.555C269.062 484.406 270 483.68 271.641 483.574L274.898 483.375V484.371C274.898 486.129 273.422 487.477 271.5 487.477ZM271.043 489.211C272.684 489.211 274.23 488.297 274.957 486.902H275.004V489H276.938V480.574C276.938 478.148 275.133 476.602 272.273 476.602C269.391 476.602 267.586 478.219 267.445 480.328H269.414C269.672 479.133 270.656 478.395 272.227 478.395C273.914 478.395 274.898 479.285 274.898 480.773V481.793L271.406 481.992C268.594 482.156 266.988 483.469 266.988 485.555C266.988 487.746 268.617 489.211 271.043 489.211ZM283.945 484.465C284.145 487.383 286.605 489.281 290.297 489.281C294.082 489.281 296.543 487.324 296.543 484.195C296.543 481.805 295.148 480.398 291.621 479.625L289.746 479.215C287.438 478.711 286.535 477.797 286.535 476.461C286.535 474.738 288.164 473.707 290.273 473.707C292.477 473.707 293.941 474.844 294.129 476.695H296.238C296.145 473.824 293.707 471.809 290.332 471.809C286.828 471.809 284.367 473.766 284.367 476.555C284.367 478.957 285.832 480.492 289.219 481.23L291.094 481.641C293.438 482.156 294.375 483.094 294.375 484.512C294.375 486.176 292.711 487.383 290.414 487.383C287.988 487.383 286.301 486.281 286.055 484.465H283.945ZM308.824 480.809C308.566 478.617 306.75 476.602 303.703 476.602C300.34 476.602 298.102 479.062 298.102 482.906C298.102 486.832 300.352 489.211 303.727 489.211C306.492 489.211 308.531 487.5 308.848 485.074H306.844C306.492 486.539 305.402 487.418 303.738 487.418C301.629 487.418 300.176 485.742 300.176 482.906C300.176 480.141 301.605 478.395 303.715 478.395C305.508 478.395 306.539 479.484 306.832 480.809H308.824ZM310.828 489H312.867V476.812H310.828V489ZM311.848 474.645C312.562 474.645 313.125 474.07 313.125 473.367C313.125 472.652 312.562 472.09 311.848 472.09C311.145 472.09 310.57 472.652 310.57 473.367C310.57 474.07 311.145 474.645 311.848 474.645ZM320.508 478.371C322.43 478.371 323.707 479.824 323.754 481.863H317.133C317.262 479.836 318.598 478.371 320.508 478.371ZM323.707 485.508C323.367 486.656 322.23 487.441 320.684 487.441C318.492 487.441 317.121 485.906 317.121 483.574V483.457H325.863V482.684C325.863 478.992 323.836 476.602 320.543 476.602C317.18 476.602 315.023 479.168 315.023 482.953C315.023 486.785 317.145 489.211 320.637 489.211C323.297 489.211 325.359 487.641 325.711 485.508H323.707ZM327.926 489H329.965V481.828C329.965 479.766 331.219 478.406 333.141 478.406C335.016 478.406 335.941 479.484 335.941 481.453V489H337.98V481.09C337.98 478.324 336.434 476.602 333.762 476.602C331.875 476.602 330.574 477.445 329.895 478.758H329.848V476.812H327.926V489ZM341.238 473.871V476.812H339.422V478.488H341.238V485.836C341.238 488.18 342.105 489.094 344.344 489.094C344.824 489.094 345.387 489.059 345.633 489V487.289C345.492 487.312 345.023 487.348 344.789 487.348C343.746 487.348 343.277 486.844 343.277 485.73V478.488H345.645V476.812H343.277V473.871H341.238ZM347.93 489H349.969V476.812H347.93V489ZM348.949 474.645C349.664 474.645 350.227 474.07 350.227 473.367C350.227 472.652 349.664 472.09 348.949 472.09C348.246 472.09 347.672 472.652 347.672 473.367C347.672 474.07 348.246 474.645 348.949 474.645ZM352.512 480.176C352.512 481.934 353.625 483 355.922 483.551L357.855 484.02C359.25 484.359 359.73 484.863 359.73 485.742C359.73 486.844 358.711 487.547 357.059 487.547C355.406 487.547 354.469 486.879 354.223 485.484H352.184C352.418 487.77 354.199 489.211 357.059 489.211C359.777 489.211 361.781 487.711 361.781 485.59C361.781 483.844 360.891 482.883 358.43 482.285L356.496 481.816C355.137 481.488 354.516 480.914 354.516 480.07C354.516 479.004 355.5 478.266 356.988 478.266C358.488 478.266 359.426 479.051 359.578 480.328H361.523C361.441 478.172 359.66 476.602 356.988 476.602C354.352 476.602 352.512 478.09 352.512 480.176ZM364.559 473.871V476.812H362.742V478.488H364.559V485.836C364.559 488.18 365.426 489.094 367.664 489.094C368.145 489.094 368.707 489.059 368.953 489V487.289C368.812 487.312 368.344 487.348 368.109 487.348C367.066 487.348 366.598 486.844 366.598 485.73V478.488H368.965V476.812H366.598V473.871H364.559ZM370.934 480.176C370.934 481.934 372.047 483 374.344 483.551L376.277 484.02C377.672 484.359 378.152 484.863 378.152 485.742C378.152 486.844 377.133 487.547 375.48 487.547C373.828 487.547 372.891 486.879 372.645 485.484H370.605C370.84 487.77 372.621 489.211 375.48 489.211C378.199 489.211 380.203 487.711 380.203 485.59C380.203 483.844 379.312 482.883 376.852 482.285L374.918 481.816C373.559 481.488 372.938 480.914 372.938 480.07C372.938 479.004 373.922 478.266 375.41 478.266C376.91 478.266 377.848 479.051 378 480.328H379.945C379.863 478.172 378.082 476.602 375.41 476.602C372.773 476.602 370.934 478.09 370.934 480.176Z" fill="black"/>
<defs>
<linearGradient id="paint0_linear" x1="302.741" y1="264.1" x2="302.741" y2="459.784" gradientUnits="userSpaceOnUse">
<stop offset="0.112583" stop-color="#F9C331" stop-opacity="0"/>
<stop offset="0.96875" stop-color="#F9C331"/>
</linearGradient>
</defs>
</svg>
