<svg width="605" height="493" viewBox="0 0 605 493" fill="none" xmlns="http://www.w3.org/2000/svg">
<path d="M0.644836 459.784H604.837" stroke="black"/>
<path d="M0.644745 40.7225L0.644731 460.722" stroke="black"/>
<path d="M0.644836 327.082L67.7773 289.759L134.91 410.02L202.042 277.318L269.175 252.437L336.307 345.743L403.44 287.686L470.572 362.331L537.705 414.167L604.837 262.804V459.784H537.705H470.572H403.44H336.307H269.175H202.042H134.91H67.7773H0.644836V327.082Z" fill="url(#paint0_linear)" fill-opacity="0.75"/>
<path d="M0.644836 58.7511L67.7773 108.514L134.91 139.616L202.042 241.216L269.175 141.69L336.307 162.425L403.44 54.6041L470.572 193.527L537.705 216.335L604.837 77.4123V40.0898H537.705H470.572H403.44H336.307H269.175H202.042H134.91H67.7773H0.644836V58.7511Z" fill="#2A6D9E"/>
<path d="M0.644836 58.7511L67.7773 108.514L134.91 139.616L202.042 241.216L269.175 141.69L336.307 162.425L403.44 54.6041L470.572 193.527L537.705 216.335L604.837 77.4123V40.0898H537.705H470.572H403.44H336.307H269.175H202.042H134.91H67.7773H0.644836V58.7511Z" fill="url(#paint1_linear)" style="mix-blend-mode:hard-light"/>
<path d="M197.727 231.09V248H199.836V241.965H203.738C206.914 241.965 209.176 239.727 209.176 236.516C209.176 233.316 206.938 231.09 203.762 231.09H197.727ZM199.836 232.965H203.211C205.637 232.965 207.008 234.277 207.008 236.516C207.008 238.766 205.625 240.09 203.211 240.09H199.836V232.965ZM211.285 248H213.324V240.406C213.324 238.684 214.355 237.547 215.938 237.547C216.43 237.547 216.863 237.605 217.027 237.664V235.684C216.863 235.66 216.559 235.602 216.207 235.602C214.777 235.602 213.652 236.457 213.254 237.805H213.207V235.812H211.285V248ZM223.156 248.211C226.52 248.211 228.793 245.785 228.793 241.906C228.793 238.016 226.52 235.602 223.156 235.602C219.781 235.602 217.508 238.016 217.508 241.906C217.508 245.785 219.781 248.211 223.156 248.211ZM223.156 246.418C221 246.418 219.582 244.777 219.582 241.906C219.582 239.035 221 237.395 223.156 237.395C225.312 237.395 226.719 239.035 226.719 241.906C226.719 244.777 225.312 246.418 223.156 246.418ZM235.473 248.211C237.23 248.211 238.625 247.344 239.41 245.938H239.445V248H241.391V231.09H239.352V237.793H239.305C238.578 236.457 237.172 235.602 235.426 235.602C232.355 235.602 230.258 238.086 230.258 241.906C230.258 245.727 232.367 248.211 235.473 248.211ZM235.859 237.395C237.957 237.395 239.363 239.188 239.363 241.906C239.363 244.637 237.957 246.418 235.859 246.418C233.703 246.418 232.344 244.672 232.344 241.906C232.344 239.152 233.703 237.395 235.859 237.395ZM254.152 235.812H252.113V242.973C252.113 245.047 250.918 246.406 248.938 246.406C247.051 246.406 246.125 245.34 246.125 243.359V235.812H244.086V243.723C244.086 246.488 245.645 248.211 248.305 248.211C250.18 248.211 251.445 247.426 252.172 246.02H252.219V248H254.152V235.812ZM266.926 239.809C266.668 237.617 264.852 235.602 261.805 235.602C258.441 235.602 256.203 238.062 256.203 241.906C256.203 245.832 258.453 248.211 261.828 248.211C264.594 248.211 266.633 246.5 266.949 244.074H264.945C264.594 245.539 263.504 246.418 261.84 246.418C259.73 246.418 258.277 244.742 258.277 241.906C258.277 239.141 259.707 237.395 261.816 237.395C263.609 237.395 264.641 238.484 264.934 239.809H266.926ZM269.48 232.871V235.812H267.664V237.488H269.48V244.836C269.48 247.18 270.348 248.094 272.586 248.094C273.066 248.094 273.629 248.059 273.875 248V246.289C273.734 246.312 273.266 246.348 273.031 246.348C271.988 246.348 271.52 245.844 271.52 244.73V237.488H273.887V235.812H271.52V232.871H269.48ZM297.969 248V231.09H295.52L289.684 245.316H289.59L283.754 231.09H281.305V248H283.273V234.969H283.355L288.746 248H290.527L295.918 234.969H296V248H297.969ZM304.602 246.477C303.137 246.477 302.164 245.715 302.164 244.555C302.164 243.406 303.102 242.68 304.742 242.574L308 242.375V243.371C308 245.129 306.523 246.477 304.602 246.477ZM304.145 248.211C305.785 248.211 307.332 247.297 308.059 245.902H308.105V248H310.039V239.574C310.039 237.148 308.234 235.602 305.375 235.602C302.492 235.602 300.688 237.219 300.547 239.328H302.516C302.773 238.133 303.758 237.395 305.328 237.395C307.016 237.395 308 238.285 308 239.773V240.793L304.508 240.992C301.695 241.156 300.09 242.469 300.09 244.555C300.09 246.746 301.719 248.211 304.145 248.211ZM312.629 248H314.668V240.828C314.668 238.766 315.922 237.406 317.844 237.406C319.719 237.406 320.645 238.484 320.645 240.453V248H322.684V240.09C322.684 237.324 321.137 235.602 318.465 235.602C316.578 235.602 315.277 236.445 314.598 237.758H314.551V235.812H312.629V248ZM329.305 246.477C327.84 246.477 326.867 245.715 326.867 244.555C326.867 243.406 327.805 242.68 329.445 242.574L332.703 242.375V243.371C332.703 245.129 331.227 246.477 329.305 246.477ZM328.848 248.211C330.488 248.211 332.035 247.297 332.762 245.902H332.809V248H334.742V239.574C334.742 237.148 332.938 235.602 330.078 235.602C327.195 235.602 325.391 237.219 325.25 239.328H327.219C327.477 238.133 328.461 237.395 330.031 237.395C331.719 237.395 332.703 238.285 332.703 239.773V240.793L329.211 240.992C326.398 241.156 324.793 242.469 324.793 244.555C324.793 246.746 326.422 248.211 328.848 248.211ZM342.289 246.301C340.191 246.301 338.82 244.59 338.82 241.859C338.82 239.129 340.191 237.395 342.289 237.395C344.41 237.395 345.828 239.176 345.828 241.859C345.828 244.543 344.41 246.301 342.289 246.301ZM342.359 252.594C345.723 252.594 347.867 250.66 347.867 247.754V235.812H345.922V237.863H345.887C345.078 236.445 343.648 235.602 341.926 235.602C338.773 235.602 336.734 238.039 336.734 241.859C336.734 245.645 338.773 248.094 341.879 248.094C343.59 248.094 345.031 247.227 345.781 245.902H345.828V247.824C345.828 249.641 344.551 250.859 342.441 250.859C340.918 250.859 339.711 250.121 339.312 249.008H337.215C337.555 251.082 339.676 252.594 342.359 252.594ZM355.414 237.371C357.336 237.371 358.613 238.824 358.66 240.863H352.039C352.168 238.836 353.504 237.371 355.414 237.371ZM358.613 244.508C358.273 245.656 357.137 246.441 355.59 246.441C353.398 246.441 352.027 244.906 352.027 242.574V242.457H360.77V241.684C360.77 237.992 358.742 235.602 355.449 235.602C352.086 235.602 349.93 238.168 349.93 241.953C349.93 245.785 352.051 248.211 355.543 248.211C358.203 248.211 360.266 246.641 360.617 244.508H358.613ZM362.832 248H364.871V240.359C364.871 238.672 366.043 237.406 367.66 237.406C369.172 237.406 370.156 238.367 370.156 239.832V248H372.195V240.254C372.195 238.602 373.332 237.406 374.949 237.406C376.555 237.406 377.48 238.391 377.48 240.055V248H379.52V239.586C379.52 237.172 377.961 235.602 375.547 235.602C373.836 235.602 372.406 236.469 371.727 237.922H371.68C371.152 236.445 369.922 235.602 368.258 235.602C366.617 235.602 365.375 236.469 364.801 237.758H364.754V235.812H362.832V248ZM387.008 237.371C388.93 237.371 390.207 238.824 390.254 240.863H383.633C383.762 238.836 385.098 237.371 387.008 237.371ZM390.207 244.508C389.867 245.656 388.73 246.441 387.184 246.441C384.992 246.441 383.621 244.906 383.621 242.574V242.457H392.363V241.684C392.363 237.992 390.336 235.602 387.043 235.602C383.68 235.602 381.523 238.168 381.523 241.953C381.523 245.785 383.645 248.211 387.137 248.211C389.797 248.211 391.859 246.641 392.211 244.508H390.207ZM394.426 248H396.465V240.828C396.465 238.766 397.719 237.406 399.641 237.406C401.516 237.406 402.441 238.484 402.441 240.453V248H404.48V240.09C404.48 237.324 402.934 235.602 400.262 235.602C398.375 235.602 397.074 236.445 396.395 237.758H396.348V235.812H394.426V248ZM407.738 232.871V235.812H405.922V237.488H407.738V244.836C407.738 247.18 408.605 248.094 410.844 248.094C411.324 248.094 411.887 248.059 412.133 248V246.289C411.992 246.312 411.523 246.348 411.289 246.348C410.246 246.348 409.777 245.844 409.777 244.73V237.488H412.145V235.812H409.777V232.871H407.738Z" fill="black"/>
<defs>
<linearGradient id="paint0_linear" x1="302.741" y1="264.1" x2="302.741" y2="459.784" gradientUnits="userSpaceOnUse">
<stop offset="0.112583" stop-color="#F9C331" stop-opacity="0"/>
<stop offset="0.96875" stop-color="#F9C331"/>
</linearGradient>
<linearGradient id="paint1_linear" x1="302.741" y1="198.192" x2="302.741" y2="40.0898" gradientUnits="userSpaceOnUse">
<stop stop-color="white"/>
<stop offset="0.742268" stop-color="white" stop-opacity="0.244845"/>
<stop offset="1" stop-color="white" stop-opacity="0"/>
</linearGradient>
</defs>
</svg>
