<?xml version="1.0" standalone="no"?>
<!DOCTYPE svg PUBLIC "-//W3C//DTD SVG 20010904//EN"
 "http://www.w3.org/TR/2001/REC-SVG-20010904/DTD/svg10.dtd">
<svg version="1.0" xmlns="http://www.w3.org/2000/svg"
 width="700.000000pt" height="700.000000pt" viewBox="0 0 700.000000 700.000000"
 preserveAspectRatio="xMidYMid meet">
<metadata>
Created by potrace 1.11, written by Peter Selinger 2001-2013
</metadata>
<g transform="translate(0.000000,700.000000) scale(0.100000,-0.100000)"
fill="#000000" stroke="none">
<path d="M3403 6993 c53 -2 141 -2 195 0 53 1 9 3 -98 3 -107 0 -151 -2 -97
-3z"/>
<path d="M3810 6128 l0 -858 150 0 150 0 0 -292 0 -293 66 99 c128 191 300
345 488 436 117 57 192 82 331 112 87 20 131 22 335 23 222 0 241 -2 340 -27
331 -84 579 -247 792 -519 263 -337 397 -731 430 -1261 21 -331 -15 -696 -96
-973 -158 -547 -510 -964 -951 -1130 -155 -59 -256 -77 -465 -82 -281 -8 -485
27 -685 117 -185 83 -393 265 -515 451 -34 52 -64 96 -66 98 -2 2 -4 -441 -4
-986 l0 -991 110 23 c581 124 1126 394 1570 781 203 176 407 400 558 611 349
488 560 1044 634 1668 16 139 16 595 0 730 -108 889 -477 1619 -1122 2217
-533 495 -1254 822 -1972 896 l-78 8 0 -858z"/>
<path d="M2995 6964 c-928 -142 -1725 -615 -2293 -1362 -373 -489 -613 -1100
-684 -1737 -17 -154 -17 -585 0 -730 44 -370 129 -694 269 -1020 276 -645 764
-1212 1365 -1586 511 -318 1081 -494 1696 -525 l132 -7 0 836 0 837 -150 0
-150 0 0 287 0 286 -62 -94 c-83 -125 -246 -289 -364 -366 -203 -133 -430
-197 -734 -210 -612 -24 -1097 275 -1388 857 -111 221 -171 417 -213 693 -30
191 -37 579 -15 787 43 404 154 735 344 1020 89 135 295 348 407 422 274 180
593 258 938 229 458 -38 789 -222 1019 -566 33 -49 62 -92 64 -94 2 -2 4 460
4 1027 l0 1032 -47 -1 c-27 -1 -88 -7 -138 -15z"/>
<path d="M1955 5054 c-11 -3 -47 -9 -80 -16 -217 -40 -448 -203 -582 -410 -65
-101 -137 -258 -172 -374 -119 -406 -113 -1007 16 -1399 126 -385 377 -643
708 -730 142 -37 349 -39 502 -5 376 84 661 411 772 887 71 307 80 716 21
1041 -58 319 -167 546 -355 737 -193 197 -394 277 -689 274 -66 -1 -130 -3
-141 -5z"/>
<path d="M5040 4840 c-214 -27 -389 -112 -537 -261 -215 -215 -344 -531 -384
-944 -17 -180 -7 -558 20 -710 42 -235 101 -409 192 -564 178 -301 438 -464
780 -486 621 -41 1040 394 1130 1175 18 157 15 509 -6 665 -66 503 -288 878
-611 1036 -157 77 -398 113 -584 89z"/>
</g>
</svg>
